<?xml version="1.0" ?><svg id="Layer_1" style="enable-background:new 0 0 512 512;" version="1.1" viewBox="0 0 512 512" xml:space="preserve" xmlns="http://www.w3.org/2000/svg" xmlns:xlink="http://www.w3.org/1999/xlink"><style type="text/css">
	.st0{opacity:0.5;fill:#DD9418;}
	.st1{fill:#20201E;}
</style><path class="st0" d="M418,216.2c-4.3-36-34.9-63.9-72-63.9c-2,0-4.1,0.1-6.1,0.3c-0.2-0.2-0.4-0.3-0.7-0.4c-0.7-0.5-1.4-1-2.1-1.4  c-0.4-0.3-0.8-0.5-1.2-0.8c-0.8-0.5-1.5-1-2.3-1.4c-0.3-0.2-0.7-0.4-1-0.6c-0.9-0.5-1.9-1.1-2.8-1.6c-0.2-0.1-0.4-0.2-0.6-0.3  c-1.2-0.6-2.3-1.3-3.5-1.9c-0.2-0.1-0.3-0.2-0.5-0.2c-1-0.5-2-1-3.1-1.5c-0.4-0.2-0.7-0.3-1.1-0.5c-0.8-0.4-1.7-0.7-2.5-1.1  c-0.4-0.2-0.9-0.4-1.3-0.5c-0.8-0.3-1.6-0.6-2.4-0.9c-0.4-0.2-0.9-0.3-1.3-0.5c-0.8-0.3-1.7-0.6-2.5-0.9c-0.4-0.1-0.9-0.3-1.3-0.4  c-0.9-0.3-1.9-0.6-2.8-0.9c-0.3-0.1-0.7-0.2-1-0.3c-1.3-0.4-2.6-0.7-3.9-1c-0.1,0-0.3-0.1-0.4-0.1c-1.2-0.3-2.3-0.5-3.5-0.8  c-0.4-0.1-0.9-0.2-1.3-0.2c-0.9-0.2-1.8-0.3-2.7-0.5c-0.5-0.1-1-0.2-1.5-0.2c-0.8-0.1-1.7-0.2-2.5-0.4c-0.5-0.1-1.1-0.1-1.6-0.2  c-0.2,0-0.5-0.1-0.7-0.1h0.1v-0.6c0-22.1,17.9-40,40-40c6.5,0,11.8-5.3,11.8-11.8c0-6.5-5.3-11.8-11.8-11.8  c-35.2,0-63.7,28.5-63.7,63.7v0.6h0.1c-0.2,0-0.5,0.1-0.7,0.1c-0.5,0.1-1.1,0.1-1.6,0.2c-0.8,0.1-1.7,0.2-2.5,0.4  c-0.5,0.1-1,0.2-1.5,0.2c-0.9,0.1-1.8,0.3-2.7,0.5c-0.4,0.1-0.9,0.2-1.3,0.2c-1.2,0.2-2.4,0.5-3.5,0.8c-0.1,0-0.3,0.1-0.4,0.1  c-1.3,0.3-2.6,0.7-3.9,1c-0.3,0.1-0.7,0.2-1,0.3c-1,0.3-1.9,0.6-2.8,0.9c-0.4,0.1-0.9,0.3-1.3,0.4c-0.8,0.3-1.7,0.6-2.5,0.9  c-0.5,0.2-0.9,0.3-1.3,0.5c-0.8,0.3-1.6,0.6-2.4,0.9c-0.4,0.2-0.9,0.3-1.3,0.5c-0.8,0.4-1.7,0.7-2.5,1.1c-0.4,0.2-0.7,0.3-1.1,0.5  c-1,0.5-2.1,1-3.1,1.5c-0.2,0.1-0.3,0.2-0.5,0.2c-1.2,0.6-2.4,1.2-3.5,1.9c-0.2,0.1-0.4,0.2-0.6,0.3c-0.9,0.5-1.9,1.1-2.8,1.6  c-0.4,0.2-0.7,0.4-1.1,0.6c-0.8,0.5-1.5,0.9-2.3,1.4c-0.4,0.2-0.8,0.5-1.2,0.8c-0.7,0.5-1.4,1-2.1,1.4c-0.2,0.2-0.4,0.3-0.7,0.4  c-2-0.2-4-0.3-6.1-0.3c-37.1,0-67.7,27.9-72,63.9c-17.1,17.2-27.6,40.9-27.6,67s10.6,49.8,27.6,67c4.3,36,34.9,63.9,72,63.9  c2,0,4.1-0.1,6.1-0.3c0.2,0.2,0.4,0.3,0.7,0.4c0.7,0.5,1.4,1,2.1,1.4c0.4,0.3,0.8,0.5,1.2,0.8c0.8,0.5,1.5,1,2.3,1.4  c0.4,0.2,0.7,0.4,1.1,0.6c0.9,0.5,1.9,1.1,2.8,1.6c0.2,0.1,0.4,0.2,0.6,0.3c1.2,0.6,2.3,1.3,3.5,1.9c0.2,0.1,0.3,0.2,0.5,0.2  c1,0.5,2,1,3.1,1.5c0.4,0.2,0.7,0.3,1.1,0.5c0.8,0.4,1.7,0.7,2.5,1.1c0.4,0.2,0.9,0.4,1.3,0.5c0.8,0.3,1.6,0.6,2.4,0.9  c0.4,0.2,0.9,0.3,1.3,0.5c0.8,0.3,1.7,0.6,2.5,0.9c0.4,0.1,0.9,0.3,1.3,0.4c0.9,0.3,1.9,0.6,2.8,0.9c0.3,0.1,0.7,0.2,1,0.3  c1.3,0.4,2.6,0.7,3.9,1c0.1,0,0.3,0.1,0.4,0.1c1.2,0.3,2.3,0.5,3.5,0.8c0.4,0.1,0.9,0.2,1.3,0.2c0.9,0.2,1.8,0.3,2.7,0.5  c0.5,0.1,1,0.2,1.5,0.2c0.8,0.1,1.7,0.2,2.5,0.4c0.5,0.1,1.1,0.1,1.6,0.2c0.9,0.1,1.7,0.2,2.6,0.3c0.5,0,1,0.1,1.5,0.1  c0.9,0.1,1.9,0.1,2.8,0.2c0.4,0,0.9,0.1,1.3,0.1c1.4,0.1,2.8,0.1,4.2,0.1s2.8,0,4.2-0.1c0.4,0,0.9,0,1.3-0.1c0.9,0,1.9-0.1,2.8-0.2  c0.5,0,1-0.1,1.5-0.1c0.9-0.1,1.7-0.2,2.6-0.3c0.5-0.1,1.1-0.1,1.6-0.2c0.8-0.1,1.7-0.2,2.5-0.4c0.5-0.1,1-0.2,1.5-0.2  c0.9-0.1,1.8-0.3,2.7-0.5c0.4-0.1,0.9-0.2,1.3-0.2c1.2-0.2,2.4-0.5,3.5-0.8c0.1,0,0.3-0.1,0.4-0.1c1.3-0.3,2.6-0.7,3.9-1  c0.3-0.1,0.7-0.2,1-0.3c1-0.3,1.9-0.6,2.8-0.9c0.4-0.1,0.9-0.3,1.3-0.4c0.8-0.3,1.7-0.6,2.5-0.9c0.5-0.2,0.9-0.3,1.3-0.5  c0.8-0.3,1.6-0.6,2.4-0.9c0.4-0.2,0.9-0.3,1.3-0.5c0.8-0.4,1.7-0.7,2.5-1.1c0.4-0.2,0.7-0.3,1.1-0.5c1-0.5,2.1-1,3.1-1.5  c0.2-0.1,0.3-0.2,0.5-0.2c1.2-0.6,2.4-1.2,3.5-1.9c0.2-0.1,0.4-0.2,0.6-0.3c0.9-0.5,1.9-1.1,2.8-1.6c0.4-0.2,0.7-0.4,1.1-0.6  c0.8-0.5,1.5-0.9,2.3-1.4c0.4-0.2,0.8-0.5,1.2-0.8c0.7-0.5,1.4-1,2.1-1.4c0.2-0.2,0.4-0.3,0.7-0.4c2,0.2,4,0.3,6.1,0.3  c37.1,0,67.7-27.9,72-63.9c17.1-17.2,27.6-40.9,27.6-67S435.1,233.4,418,216.2z"/><g><path class="st1" d="M402.8,203.9c-5.4-38.1-38.1-66.6-76.7-66.6c-1.5,0-3,0.1-4.7,0.2c-14.6-10-31-16.4-48.3-18.9   c1.9-17.6,16.8-31.3,34.8-31.3c9.3,0,16.8-7.5,16.8-16.8s-7.5-16.8-16.8-16.8c-36.6,0-66.6,28.8-68.6,64.9   c-17.4,2.5-34,8.9-48.6,19c-1.6-0.1-3.2-0.2-4.7-0.2c-38.7,0-71.4,28.5-76.7,66.6c-18,18.7-27.9,43.3-27.9,69.3   c0,26,9.9,50.6,27.9,69.3c5.4,38.1,38.1,66.6,76.7,66.6c1.5,0,3-0.1,4.7-0.2c16.1,11,34.4,17.6,53.7,19.6c0.2,0,0.3,0,0.5,0   c1.1,0.1,2.1,0.2,3.2,0.3c0.6,0,1.1,0.1,1.7,0.1c0.7,0,1.5,0.1,2.2,0.1c1.4,0,2.7,0.1,4.1,0.1c1.4,0,2.7,0,4.1-0.1   c0.7,0,1.5-0.1,2.2-0.1c0.6,0,1.1-0.1,1.7-0.1c1.1-0.1,2.1-0.2,3.2-0.3c0.2,0,0.3,0,0.5,0c19.3-1.9,37.6-8.6,53.7-19.6   c1.6,0.1,3.2,0.2,4.7,0.2c38.7,0,71.4-28.5,76.7-66.6c18-18.7,27.9-43.3,27.9-69.3S420.7,222.7,402.8,203.9z M307.9,63.6   c3.8,0,6.8,3.1,6.8,6.8s-3.1,6.8-6.8,6.8c-23.2,0-42.4,17.7-44.8,40.3c-0.3,0-0.5,0-0.8,0c-0.7,0-1.5-0.1-2.2-0.1   c-1.4,0-2.7-0.1-4.1-0.1s-2.7,0-4.1,0.1c-0.7,0-1.5,0.1-2.2,0.1c-0.1,0-0.2,0-0.3,0C251.8,87.4,277.1,63.6,307.9,63.6z    M394.5,336.8c-0.8,0.8-1.3,1.8-1.4,2.9c-3.7,31.1-28.3,55.2-58.7,59c8.6-7.8,16.1-17,22-27.3c1.4-2.4,0.6-5.4-1.8-6.8   c-2.4-1.4-5.4-0.6-6.8,1.8c-17.1,29.5-47.5,48.9-81,52.3c-0.2,0-0.4,0-0.6,0.1c-0.9,0.1-1.8,0.2-2.7,0.2c-0.6,0-1.1,0.1-1.7,0.1   c-0.6,0-1.3,0.1-1.9,0.1c-1.3,0-2.5,0.1-3.8,0.1s-2.5,0-3.8-0.1c-0.6,0-1.3-0.1-1.9-0.1c-0.6,0-1.1-0.1-1.7-0.1   c-0.9-0.1-1.8-0.1-2.7-0.2c-0.2,0-0.4,0-0.6-0.1c-33.5-3.4-63.9-22.8-81-52.3c-1.4-2.4-4.4-3.2-6.8-1.8c-2.4,1.4-3.2,4.4-1.8,6.8   c6,10.3,13.4,19.5,22,27.3c-30.4-3.8-55-27.8-58.7-59c-0.1-1.1-0.6-2.1-1.4-2.9c-16.9-17-26.2-39.6-26.2-63.5   c0-24,9.3-46.5,26.2-63.5c0.8-0.8,1.3-1.8,1.4-2.9c3.7-31.1,28.3-55.2,58.7-59c-8.6,7.8-16.1,17-22,27.3c-1.4,2.4-0.6,5.4,1.8,6.8   c2.4,1.4,5.4,0.6,6.8-1.8c17.1-29.5,47.5-48.9,81-52.3c0.2,0,0.4,0,0.6-0.1c0.9-0.1,1.8-0.2,2.7-0.2c0.6,0,1.1-0.1,1.7-0.1   c0.6,0,1.3-0.1,1.9-0.1c1.3,0,2.5-0.1,3.8-0.1s2.5,0,3.8,0.1c0.6,0,1.3,0.1,1.9,0.1c0.6,0,1.1,0.1,1.7,0.1c0.9,0.1,1.8,0.1,2.7,0.2   c0.2,0,0.4,0,0.6,0.1c33.5,3.4,63.9,22.8,81,52.3c0.9,1.6,2.6,2.5,4.3,2.5c0.9,0,1.7-0.2,2.5-0.7c2.4-1.4,3.2-4.4,1.8-6.8   c-6-10.3-13.4-19.5-22-27.3c30.4,3.8,55,27.8,58.7,59c0.1,1.1,0.6,2.1,1.4,2.9c16.9,17,26.2,39.6,26.2,63.5   C420.6,297.2,411.3,319.8,394.5,336.8z"/><path class="st1" d="M360.5,203.8c-2.7,0.7-4.2,3.5-3.5,6.2c5.7,20.5,8.6,41.8,8.6,63.3c0,21.5-2.9,42.7-8.6,63.3   c-0.7,2.7,0.8,5.4,3.5,6.2c0.4,0.1,0.9,0.2,1.3,0.2c2.2,0,4.2-1.4,4.8-3.7c6-21.4,9-43.6,9-66c0-22.4-3-44.6-9-66   C365.9,204.6,363.2,203.1,360.5,203.8z"/><path class="st1" d="M151.5,203.8c-2.7-0.7-5.4,0.8-6.2,3.5c-6,21.4-9,43.6-9,66c0,22.4,3,44.6,9,66c0.6,2.2,2.6,3.7,4.8,3.7   c0.4,0,0.9-0.1,1.3-0.2c2.7-0.7,4.2-3.5,3.5-6.2c-5.7-20.5-8.6-41.8-8.6-63.3c0-21.5,2.9-42.7,8.6-63.3   C155.7,207.3,154.2,204.6,151.5,203.8z"/><path class="st1" d="M203.1,235.2c-14.8,0-26.9,12.1-26.9,26.9c0,14.8,12.1,26.9,26.9,26.9S230,276.8,230,262   C230,247.2,217.9,235.2,203.1,235.2z M203.1,278.9c-9.3,0-16.9-7.6-16.9-16.9c0-9.3,7.6-16.9,16.9-16.9c9.3,0,16.9,7.6,16.9,16.9   C220,271.3,212.4,278.9,203.1,278.9z"/><path class="st1" d="M308.9,235.2c-14.8,0-26.9,12.1-26.9,26.9c0,14.8,12.1,26.9,26.9,26.9c14.8,0,26.9-12.1,26.9-26.9   C335.7,247.2,323.7,235.2,308.9,235.2z M308.9,278.9c-9.3,0-16.9-7.6-16.9-16.9c0-9.3,7.6-16.9,16.9-16.9c9.3,0,16.9,7.6,16.9,16.9   C325.7,271.3,318.2,278.9,308.9,278.9z"/><path class="st1" d="M270.2,295.4c-6.5,6.5-17.1,6.5-23.6,0c-2-2-5.1-2-7.1,0c-2,2-2,5.1,0,7.1c5.2,5.2,12,7.8,18.9,7.8   c6.8,0,13.7-2.6,18.9-7.8c2-2,2-5.1,0-7.1C275.3,293.4,272.2,293.4,270.2,295.4z"/></g></svg>