<?xml version="1.0" ?><svg height="36px" version="1.1" viewBox="0 0 46 36" width="46px" xmlns="http://www.w3.org/2000/svg" xmlns:xlink="http://www.w3.org/1999/xlink"><title/><desc/><defs/><g fill="none" fill-rule="evenodd" id="Music" stroke="none" stroke-width="1"><g id="Icons" transform="translate(-203.000000, -129.000000)"><g id="Volume-Increase" transform="translate(227.500000, 147.000000) scale(-1, 1) translate(-227.500000, -147.000000) translate(206.000000, 132.000000)"><path d="M37.7536831,20.1861961 C35.6097142,22.765318 31.8712381,25.4796517 27.6218149,27.7580311 C25.5793091,28.8531452 23.6053671,29.7334971 22.1001139,30.2223575 C21.2778904,30.4893907 20.5942943,30.6422345 20.0383326,30.6624748 C18.9000992,30.7039132 17.8691406,30.1884554 17.8691406,28.8457031 L17.8691406,1.04931641 C17.8691406,-0.263231745 18.8979695,-0.867633643 20.0413331,-0.820764961 C20.6198427,-0.79705074 21.314452,-0.617266967 22.1502481,-0.303596016 C23.6389587,0.255111198 25.6003266,1.25868986 27.6540132,2.50976575 C31.8323318,5.05513641 35.5825383,8.07379831 37.7368172,10.8201236 C38.2928033,10.610641 38.8884758,10.5 39.5,10.5 C42.2614237,10.5 44.5,12.7385763 44.5,15.5 C44.5,18.2614237 42.2614237,20.5 39.5,20.5 C38.8947805,20.5 38.3049689,20.3916369 37.7536831,20.1861961 Z" id="Combined-Shape" stroke="#979797" stroke-width="3"/><rect fill="#979797" height="20" id="Rectangle" rx="1.5" width="3" x="8" y="5"/><rect fill="#979797" height="30" id="Rectangle" rx="1.5" width="3" x="0" y="0"/></g></g></g></svg>