<?xml version="1.0" ?><svg height="36px" version="1.1" viewBox="0 0 48 36" width="48px" xmlns="http://www.w3.org/2000/svg" xmlns:xlink="http://www.w3.org/1999/xlink"><title/><desc/><defs/><g fill="none" fill-rule="evenodd" id="Music" stroke="none" stroke-width="1"><g id="Icons" transform="translate(-302.000000, -129.000000)"><g id="Mute" transform="translate(328.000000, 147.000000) scale(-1, 1) translate(-328.000000, -147.000000) translate(305.000000, 132.000000)"><path d="M40.7536831,20.1861961 C38.6097142,22.765318 34.8712381,25.4796517 30.6218149,27.7580311 C28.5793091,28.8531452 26.6053671,29.7334971 25.1001139,30.2223575 C24.2778904,30.4893907 23.5942943,30.6422345 23.0383326,30.6624748 C21.9000992,30.7039132 20.8691406,30.1884554 20.8691406,28.8457031 L20.8691406,1.04931641 C20.8691406,-0.263231745 21.8979695,-0.867633643 23.0413331,-0.820764961 C23.6198427,-0.79705074 24.314452,-0.617266967 25.1502481,-0.303596016 C26.6389587,0.255111198 28.6003266,1.25868986 30.6540132,2.50976575 C34.8323318,5.05513641 38.5825383,8.07379831 40.7368172,10.8201236 C41.2928033,10.610641 41.8884758,10.5 42.5,10.5 C45.2614237,10.5 47.5,12.7385763 47.5,15.5 C47.5,18.2614237 45.2614237,20.5 42.5,20.5 C41.8947805,20.5 41.3049689,20.3916369 40.7536831,20.1861961 Z" id="Combined-Shape" stroke="#979797" stroke-width="3"/><rect fill="#979797" height="20" id="Rectangle-2" rx="1.5" transform="translate(8.021645, 14.030100) rotate(-141.000000) translate(-8.021645, -14.030100) " width="3" x="6.52164479" y="4.0301004"/><rect fill="#979797" height="20" id="Rectangle-2" rx="1.5" transform="translate(8.021645, 14.030100) scale(-1, 1) rotate(-141.000000) translate(-8.021645, -14.030100) " width="3" x="6.52164479" y="4.0301004"/></g></g></g></svg>